<svg xmlns="http://www.w3.org/2000/svg" viewBox="0 0 800 600">
    <defs>
        <!-- Sky gradient -->
        <linearGradient id="skyGradient" x1="0%" y1="0%" x2="0%" y2="100%">
            <stop offset="0%" style="stop-color:#7F57F1;stop-opacity:0.2"/>
            <stop offset="100%" style="stop-color:#ffffff;stop-opacity:0.1"/>
        </linearGradient>
        
        <!-- Ground gradient -->
        <linearGradient id="groundGradient" x1="0%" y1="0%" x2="0%" y2="100%">
            <stop offset="0%" style="stop-color:#3D3D3D"/>
            <stop offset="100%" style="stop-color:#1A1A1A"/>
        </linearGradient>
        
        <!-- Tree gradients -->
        <linearGradient id="treeGradient" x1="0%" y1="0%" x2="100%" y2="0%">
            <stop offset="0%" style="stop-color:#2E4D1C"/>
            <stop offset="100%" style="stop-color:#1C3012"/>
        </linearGradient>
    </defs>
    
    <!-- Sky and background -->
    <rect width="800" height="600" fill="url(#skyGradient)"/>
    
    <!-- Clouds -->
    <path d="M100,100 Q130,90 160,100 Q190,110 220,100 Q200,120 160,120 Q120,120 100,100" 
          fill="#fff" opacity="0.3"/>
    <path d="M500,150 Q530,140 560,150 Q590,160 620,150 Q600,170 560,170 Q520,170 500,150" 
          fill="#fff" opacity="0.2"/>
    
    <!-- Background trees -->
    <g transform="translate(50,200)">
        <!-- Tree cluster 1 -->
        <path d="M0,200 L40,200 L20,50 Z" fill="url(#treeGradient)"/>
        <rect x="17" y="200" width="6" height="40" fill="#4B3619"/>
        
        <!-- Tree cluster 2 -->
        <path d="M60,200 L100,200 L80,30 Z" fill="url(#treeGradient)"/>
        <rect x="77" y="200" width="6" height="40" fill="#4B3619"/>
        
        <!-- Tree cluster 3 -->
        <path d="M650,180 L700,180 L675,0 Z" fill="url(#treeGradient)"/>
        <rect x="672" y="180" width="6" height="40" fill="#4B3619"/>
    </g>
    
    <!-- Main exercise equipment area -->
    <g transform="translate(250,150)">
        <!-- Main pull-up bar structure -->
        <rect x="0" y="0" width="300" height="15" rx="7.5" fill="#555"/>
        <rect x="20" y="0" width="15" height="200" rx="7.5" fill="#555"/>
        <rect x="265" y="0" width="15" height="200" rx="7.5" fill="#555"/>
        
        <!-- Support beams -->
        <path d="M35,50 L80,20" stroke="#555" stroke-width="5"/>
        <path d="M35,150 L80,180" stroke="#555" stroke-width="5"/>
        <path d="M265,50 L220,20" stroke="#555" stroke-width="5"/>
        <path d="M265,150 L220,180" stroke="#555" stroke-width="5"/>
    </g>
    
    <!-- Person on bar -->
    <g transform="translate(400,170)">
        <!-- Hands gripping bar -->
        <circle cx="-40" cy="0" r="8" fill="#333"/>
        <circle cx="40" cy="0" r="8" fill="#333"/>
        
        <!-- Arms -->
        <path d="M-40,0 Q-30,30 -20,40" stroke="#333" stroke-width="12" fill="none"/>
        <path d="M40,0 Q30,30 20,40" stroke="#333" stroke-width="12" fill="none"/>
        
        <!-- Torso -->
        <path d="M-20,40 Q0,50 20,40" fill="#333"/>
        <path d="M-15,40 Q0,80 15,40" fill="#333"/>
        
        <!-- Head -->
        <circle cx="0" cy="25" r="15" fill="#333"/>
        
        <!-- Legs -->
        <path d="M-10,80 Q-15,120 -20,140" stroke="#333" stroke-width="12" fill="none"/>
        <path d="M10,80 Q15,120 20,140" stroke="#333" stroke-width="12" fill="none"/>
        
        <!-- Feet -->
        <ellipse cx="-20" cy="145" rx="8" ry="5" fill="#333"/>
        <ellipse cx="20" cy="145" rx="8" ry="5" fill="#333"/>
    </g>
    
    <!-- Additional equipment -->
    <g transform="translate(100,300)">
        <!-- Parallel bars -->
        <rect x="0" y="0" width="150" height="10" rx="5" fill="#666"/>
        <rect x="0" y="0" width="10" height="80" fill="#666"/>
        <rect x="140" y="0" width="10" height="80" fill="#666"/>
    </g>
    
    <g transform="translate(600,300)">
        <!-- Low bar -->
        <rect x="0" y="50" width="120" height="10" rx="5" fill="#666"/>
        <rect x="0" y="50" width="10" height="60" fill="#666"/>
        <rect x="110" y="50" width="10" height="60" fill="#666"/>
    </g>
    
    <!-- Ground -->
    <path d="M0,450 L800,450 L800,600 L0,600 Z" fill="url(#groundGradient)"/>
    
    <!-- Ground details -->
    <g fill="#555" opacity="0.2">
        <!-- Exercise area markings -->
        <rect x="200" y="460" width="400" height="2"/>
        <rect x="300" y="470" width="200" height="2"/>
        <rect x="350" y="480" width="100" height="2"/>
        
        <!-- Random ground texture -->
        <circle cx="150" cy="500" r="2"/>
        <circle cx="650" cy="490" r="2"/>
        <circle cx="450" cy="510" r="2"/>
        <circle cx="250" cy="520" r="2"/>
        <circle cx="550" cy="505" r="2"/>
    </g>
    
    <!-- Decorative elements -->
    <g fill="#7F57F1" opacity="0.1">
        <circle cx="100" cy="100" r="20"/>
        <circle cx="150" cy="150" r="15"/>
        <circle cx="650" cy="200" r="25"/>
        <circle cx="720" cy="180" r="10"/>
    </g>
</svg>